<svg width="750" height="563" viewBox="0 0 750 563" fill="none" xmlns="http://www.w3.org/2000/svg">
<rect width="750" height="563" fill="#F8F8F8"/>
<path d="M504.168 188.118H486.918V170.851C486.911 165.323 484.715 160.023 480.809 156.114C476.904 152.205 471.609 150.006 466.086 150H245.832C240.309 150.006 235.014 152.205 231.109 156.114C227.204 160.023 225.007 165.323 225 170.851V354.029C225.006 359.558 227.203 364.858 231.108 368.767C235.014 372.677 240.309 374.876 245.832 374.882H263.098V392.149C263.105 397.677 265.302 402.977 269.207 406.886C273.113 410.795 278.407 412.994 283.93 413H504.168C509.691 412.994 514.986 410.795 518.891 406.886C522.796 402.977 524.993 397.677 525 392.149V208.971C524.994 203.443 522.797 198.142 518.892 194.233C514.986 190.323 509.691 188.124 504.168 188.118ZM515.542 208.971V313.22L480.683 285.802C477.744 283.462 474.088 282.207 470.332 282.25C466.576 282.293 462.95 283.63 460.065 286.037L385.6 347.505C384.382 348.543 382.84 349.122 381.24 349.141C379.641 349.16 378.085 348.618 376.843 347.61L341.229 319.586C338.4 317.335 334.904 316.089 331.291 316.043C327.677 315.997 324.151 317.154 321.265 319.332L272.556 355.597V208.971C272.559 205.953 273.759 203.059 275.891 200.924C278.023 198.79 280.914 197.589 283.93 197.585H504.168C507.184 197.589 510.075 198.789 512.207 200.924C514.34 203.059 515.539 205.953 515.542 208.971ZM245.832 365.415C242.816 365.411 239.925 364.211 237.793 362.076C235.66 359.942 234.461 357.048 234.458 354.029V170.851C234.461 167.832 235.66 164.938 237.793 162.804C239.925 160.669 242.816 159.468 245.832 159.465H466.086C469.101 159.468 471.993 160.669 474.125 162.804C476.258 164.938 477.457 167.832 477.461 170.851V188.118H283.93C278.407 188.124 273.112 190.323 269.206 194.233C265.301 198.142 263.104 203.443 263.098 208.971V365.415H245.832ZM504.168 403.535H283.93C280.914 403.532 278.023 402.331 275.891 400.196C273.759 398.062 272.559 395.168 272.556 392.149V367.397L326.909 326.93C328.129 325.991 329.63 325.49 331.17 325.51C332.709 325.529 334.197 326.067 335.394 327.038L370.99 355.047C372.292 356.073 373.74 356.897 375.287 357.492L357.715 372.607C357.244 373.013 356.857 373.507 356.577 374.061C356.297 374.616 356.129 375.221 356.082 375.84C356.035 376.46 356.11 377.083 356.304 377.674C356.498 378.264 356.806 378.811 357.211 379.282C357.615 379.754 358.109 380.141 358.663 380.421C359.217 380.702 359.821 380.87 360.44 380.917C361.06 380.964 361.682 380.888 362.272 380.695C362.862 380.501 363.408 380.192 363.879 379.787L423.637 328.38C423.649 328.37 423.658 328.36 423.669 328.35L466.074 293.344C467.292 292.306 468.835 291.727 470.434 291.708C472.034 291.69 473.59 292.232 474.832 293.241L515.542 325.259V392.149C515.539 395.168 514.34 398.062 512.207 400.196C510.075 402.331 507.184 403.532 504.168 403.535ZM336.039 295.694C343.884 295.694 351.553 293.366 358.075 289.003C364.598 284.64 369.682 278.439 372.684 271.185C375.686 263.93 376.472 255.946 374.942 248.245C373.411 240.543 369.634 233.468 364.087 227.915C358.54 222.363 351.472 218.581 343.778 217.049C336.084 215.517 328.109 216.303 320.861 219.308C313.614 222.313 307.419 227.402 303.061 233.932C298.702 240.461 296.376 248.137 296.376 255.99C296.388 266.516 300.571 276.608 308.006 284.052C315.442 291.495 325.524 295.682 336.039 295.694ZM336.039 225.753C342.014 225.753 347.854 227.526 352.821 230.849C357.789 234.171 361.66 238.893 363.947 244.419C366.233 249.944 366.831 256.023 365.666 261.889C364.5 267.754 361.623 273.142 357.399 277.37C353.175 281.599 347.792 284.479 341.933 285.646C336.074 286.813 330 286.214 324.481 283.925C318.961 281.637 314.243 277.761 310.924 272.789C307.605 267.816 305.834 261.97 305.834 255.99C305.842 247.973 309.027 240.288 314.69 234.619C320.353 228.95 328.031 225.761 336.039 225.752V225.753Z" fill="#D3D3D3"/>
</svg>
