<svg width="360" height="58" viewBox="0 0 360 58" fill="none" xmlns="http://www.w3.org/2000/svg">
<g clip-path="url(#clip0_692_53)">
<path d="M84 43V14H95.2012C97.3454 14 99.1753 14.3918 100.691 15.1753C102.216 15.9494 103.376 17.0492 104.171 18.4746C104.975 19.8906 105.377 21.5568 105.377 23.4731C105.377 25.3989 104.97 27.0557 104.157 28.4434C103.343 29.8216 102.165 30.8789 100.622 31.6152C99.0875 32.3516 97.2298 32.7197 95.0487 32.7197H87.5489V27.792H94.0783C95.2243 27.792 96.1762 27.6315 96.9341 27.3105C97.6919 26.9896 98.2557 26.5081 98.6254 25.8662C99.0043 25.2243 99.1937 24.4266 99.1937 23.4731C99.1937 22.5103 99.0043 21.6984 98.6254 21.0376C98.2557 20.3768 97.6873 19.8765 96.9202 19.5366C96.1624 19.1873 95.2058 19.0127 94.0506 19.0127H90.0026V43H84ZM99.3324 29.8027L106.389 43H99.7621L92.8584 29.8027H99.3324Z" fill="white"/>
<path d="M109.619 43V14H128.749V19.0552H115.621V25.9653H127.765V31.0205H115.621V37.9448H128.805V43H109.619Z" fill="white"/>
<path d="M138.651 14L145.513 36.0332H145.777L152.653 14H159.307L149.52 43H141.784L131.983 14H138.651Z" fill="white"/>
<path d="M168.727 14V43H162.724V14H168.727Z" fill="white"/>
<path d="M173.665 43V14H192.796V19.0552H179.668V25.9653H191.812V31.0205H179.668V37.9448H192.852V43H173.665Z" fill="white"/>
<path d="M203.959 43L195.836 14H202.393L207.092 34.1499H207.328L212.513 14H218.127L223.298 34.1924H223.547L228.247 14H234.804L226.68 43H220.83L215.424 24.0395H215.202L209.809 43H203.959Z" fill="white"/>
<path d="M261.764 14V43H256.579L244.227 24.7476H244.019V43H238.017V14H243.285L255.54 32.2383H255.789V14H261.764Z" fill="white"/>
<path d="M266.723 43V14H285.854V19.0552H272.726V25.9653H284.87V31.0205H272.726V37.9448H285.91V43H266.723Z" fill="white"/>
<path d="M290.627 43V14H301.828C303.981 14 305.816 14.4201 307.331 15.2603C308.847 16.091 310.002 17.2474 310.797 18.7295C311.601 20.2021 312.003 21.9014 312.003 23.8271C312.003 25.7529 311.597 27.4521 310.783 28.9248C309.97 30.3975 308.792 31.5444 307.248 32.3657C305.714 33.187 303.856 33.5977 301.675 33.5977H294.536V28.6841H300.705C301.86 28.6841 302.812 28.4811 303.561 28.0752C304.318 27.6598 304.882 27.0887 305.252 26.3618C305.631 25.6255 305.82 24.7806 305.82 23.8271C305.82 22.8643 305.631 22.0241 305.252 21.3066C304.882 20.5798 304.318 20.0181 303.561 19.6216C302.803 19.2157 301.842 19.0127 300.677 19.0127H296.629V43H290.627Z" fill="white"/>
<path d="M317.517 43H311.085L320.886 14H328.621L338.409 43H331.976L324.864 20.627H324.643L317.517 43ZM317.115 31.6011H332.309V36.3872H317.115V31.6011Z" fill="white"/>
<path d="M341.826 43V14H347.828V37.9448H360V43H341.826Z" fill="white"/>
<path d="M54.9082 0H5.44891C2.44009 0 0 2.43927 0 5.4489V33.646C0 36.6556 2.44009 39.0948 5.44891 39.0948H6.97921V51.0323L24.0039 39.0948H54.9082C57.917 39.0948 60.3571 36.6556 60.3571 33.646V5.4489C60.3571 2.43927 57.917 0 54.9082 0Z" fill="white"/>
<path d="M63.7439 7.20032V33.646C63.7439 38.5262 59.7875 42.4818 54.9081 42.4818H25.143L20.4189 46.0626H43.6109L60.6356 58V46.0626C64.4901 46.0626 67.6148 42.9379 67.6148 39.0842V12.4166C67.6148 9.956 65.9834 7.8767 63.7439 7.20032Z" fill="#868686"/>
<path d="M19.0136 19.5471C19.0136 21.6346 17.3214 23.3268 15.2338 23.3268C13.1472 23.3268 11.455 21.6346 11.455 19.5471C11.455 17.4604 13.1472 15.7682 15.2338 15.7682C17.3214 15.7682 19.0136 17.4604 19.0136 19.5471Z" fill="#D21E01"/>
<path d="M33.9581 19.5471C33.9581 21.6346 32.2659 23.3268 30.1784 23.3268C28.0909 23.3268 26.3987 21.6346 26.3987 19.5471C26.3987 17.4604 28.0909 15.7682 30.1784 15.7682C32.2659 15.7682 33.9581 17.4604 33.9581 19.5471Z" fill="#D21E01"/>
<path d="M48.9017 19.5471C48.9017 21.6346 47.2095 23.3268 45.1229 23.3268C43.0353 23.3268 41.3431 21.6346 41.3431 19.5471C41.3431 17.4604 43.0353 15.7682 45.1229 15.7682C47.2095 15.7682 48.9017 17.4604 48.9017 19.5471Z" fill="#D21E01"/>
</g>
<defs>
<clipPath id="clip0_692_53">
<rect width="360" height="58" fill="white"/>
</clipPath>
</defs>
</svg>
